<svg xmlns="http://www.w3.org/2000/svg" width="512" height="512" viewBox="0 0 512 512">
  <defs>
    <linearGradient id="hue" x1="0" y1="0" x2="1" y2="1">
      <stop offset="0" stop-color="#FFC15A"/><stop offset=".5" stop-color="#FF6F91"/><stop offset="1" stop-color="#7C5CFF"/>
    </linearGradient>
    <radialGradient id="glow" cx=".5" cy=".5" r=".5">
      <stop offset="0" stop-color="#7FD1FF" stop-opacity=".9"/><stop offset="1" stop-color="#7FD1FF" stop-opacity="0"/>
    </radialGradient>
  </defs>
  <rect width="512" height="512" rx="112" fill="#14141A"/>
  <rect x="6" y="6" width="500" height="500" rx="106" fill="none" stroke="#2A2A34" stroke-width="4"/>
  <!-- beam -->
  <path d="M96 96 L256 256 L150 300 Z" fill="url(#glow)" opacity=".8"/>
  <!-- mirror ball -->
  <circle cx="286" cy="286" r="120" fill="#0E0E13" stroke="url(#hue)" stroke-width="10"/>
  <g stroke="url(#hue)" stroke-width="4" opacity=".7">
    <path d="M166 286 H406 M286 166 V406"/>
    <path d="M196 206 Q286 240 376 206 M196 366 Q286 332 376 366"/>
    <path d="M206 196 Q240 286 206 376 M366 196 Q332 286 366 376"/>
  </g>
  <g fill="url(#hue)">
    <rect x="250" y="220" width="34" height="34" rx="6" transform="rotate(45 267 237)"/>
    <rect x="318" y="288" width="26" height="26" rx="5" transform="rotate(45 331 301)"/>
    <rect x="224" y="312" width="26" height="26" rx="5" transform="rotate(45 237 325)"/>
  </g>
</svg>
